# AST/ASF file generated using VICON BodyLanguage
# -----------------------------------------------
:version 1.10
:name VICON
:units
  mass 1.0
  length 0.45
  angle deg
:documentation
   .ast/.asf automatically generated from VICON data using
   VICON BodyBuilder and BodyLanguage model FoxedUp or BRILLIANT.MOD
:root
   order TX TY TZ RX RY RZ
   axis XYZ
   position 0 0 0  
   orientation 0 0 0 
:bonedata
  begin
     id 1 
     name lhipjoint
     direction 0.521689 -0.742065 0.420928 
     length 2.47002 
     axis 0 0 0  XYZ
  end
  begin
     id 2 
     name lfemur
     direction 0.34202 -0.939693 0  
     length 7.24654  
     axis 0 0 20  XYZ
    dof rx ry rz
    limits (-160.0 20.0)
           (-70.0 70.0)
           (-60.0 70.0)
  end
  begin
     id 3 
     name ltibia
     direction 0.34202 -0.939693 0   
     length 8.04849   
     axis 0 0 20   XYZ
    dof rx
    limits (-10.0 170.0)
  end
  begin
     id 4 
     name lfoot
     direction 0.0745411 -0.2048 0.975961   
     length 1.72367   
     axis -90 7.62852e-016 20   XYZ
    dof rx rz
    limits (-45.0 90.0)
           (-70.0 20.0)
  end
  begin
     id 5 
     name ltoes
     direction 1.53556e-011 -4.21901e-011 1   
     length 0.87311   
     axis -90 7.62852e-016 20   XYZ
    dof rx
    limits (-90.0 20.0)
  end
  begin
     id 6 
     name rhipjoint
     direction -0.52849 -0.738415 0.418857   
     length 2.48223  
     axis 0 0 0  XYZ 
  end
  begin
     id 7 
     name rfemur
     direction -0.34202 -0.939693 0   
     length 7.15571   
     axis 0 0 -20   XYZ
    dof rx ry rz
    limits (-160.0 20.0)
           (-70.0 70.0)
           (-70.0 60.0)
  end
  begin
     id 8 
     name rtibia
     direction -0.34202 -0.939693 0   
     length 7.81659   
     axis 0 0 -20   XYZ
    dof rx
    limits (-10.0 170.0)
 end
 begin
     id 9 
     name rfoot
     direction -0.0917348 -0.252039 0.963359   
     length 1.84382  
     axis -90 -7.62852e-016 -20   XYZ
    dof rx rz
    limits (-45.0 90.0)
           (-20.0 70.0)
  end
  begin
     id 10 
     name rtoes
     direction -1.53551e-011 -4.21879e-011 1   
     length 0.927771   
     axis -90 -7.62852e-016 -20   XYZ
    dof rx
    limits (-90.0 20.0)
  end
  begin
     id 11 
     name lowerback
     direction 0.00583058 0.999822 0.0179296   
     length 2.1429   
     axis 0 0 0   XYZ
    dof rx ry rz
    limits (-20.0 45.0)
           (-30.0 30.0)
           (-30.0 30.0)
  end
  begin
     id 12 
     name upperback
     direction -0.0137999 0.999752 -0.0175071   
     length 2.14252   
     axis 0 0 0   XYZ
    dof rx ry rz
    limits (-20.0 45.0)
           (-30.0 30.0)
           (-30.0 30.0)
  end
  begin
     id 13 
     name thorax
     direction -0.0158036 0.99955 -0.0254909   
     length 2.1383   
     axis 0 0 0   XYZ
    dof rx ry rz
    limits (-20.0 45.0)
           (-30.0 30.0)
           (-30.0 30.0)
  end
  begin
     id 14 
     name lowerneck
     direction -0.0101179 0.999403 -0.0330262   
     length 1.65808   
     axis 0 0 0   XYZ
    dof rx ry rz
    limits (-20.0 45.0)
           (-30.0 30.0)
           (-30.0 30.0)
  end
  begin
     id 15 
     name upperneck
     direction 0.0497734 0.995978 -0.074501   
     length 1.5897   
     axis 0 0 0   XYZ
    dof rx ry rz
    limits (-20.0 45.0)
           (-30.0 30.0)
           (-30.0 30.0)
  end
  begin
     id 16
     name head
     direction 0.0189524 0.999519 -0.0245438  
     length 1.74024  
     axis 0 0 0   XYZ
    dof rx ry rz
    limits (-20.0 45.0)
           (-30.0 30.0)
           (-30.0 30.0)
  end
  begin
     id 17 
     name lclavicle
     direction 0.945604 0.324422 0.0241537  
     length 3.59089  
     axis 0 0 0   XYZ
    dof ry rz
    limits (-20.0 10.0)
           (0.0 20.0)
  end
  begin
     id 18 
     name lhumerus
     direction 1 -4.48964e-011 -2.63524e-027   
     length 5.2391   
     axis 180 -30 -90   XYZ
    dof rx ry rz
    limits (-60.0 90.0)
           (-90.0 90.0)
           (-90.0 90.0)
  end
  begin
     id 19
     name lradius
     direction 1 -4.48969e-011 3.86978e-028   
     length 3.31467   
     axis 180 -30 -90   XYZ
    dof rx
    limits (-10.0 170.0)
  end
  begin
     id 20
     name lwrist
     direction 1 -4.48963e-011 7.20928e-028   
     length 1.65734   
     axis -5.52449e-016 90 90   XYZ
    dof ry
    limits (-180.0 0.0)
 end
  begin
     id 21 
     name lhand
     direction 1 -4.48964e-011 1.44186e-027   
     length 0.9659   
     axis -9.20027e-016 90 90   XYZ
    dof rx rz
    limits (-90.0 90.0)
           (-45.0 45.0)
  end
  begin
     id 22 
     name lfingers
     direction 1 -4.48965e-011 2.88371e-027   
     length 0.778733   
     axis -1.84005e-015 90 90   XYZ
    dof rx
    limits (0.0 90.0)
  end
  begin
     id 23
     name lthumb
     direction 0.707107 -6.34931e-011 0.707107   
     length 1.11811   
     axis -90 45 2.85299e-015   XYZ
    dof rx rz
    limits (-45.0 45.0)
           (-45.0 45.0)
  end
  begin
     id 24 
     name rclavicle
     direction -0.923762 0.370785 0.0958234   
     length 3.54196  
     axis 0 0 0   XYZ 
    dof ry rz
    limits (-10.0 20.0)
           (-20.0 0.0)
  end
  begin
     id 25 
     name rhumerus
     direction -1 -4.48966e-011 1.18702e-017  
     length 5.30252   
     axis 180 30 90   XYZ
    dof rx ry rz
    limits (-90.0 60.0)
           (-90.0 90.0)
           (-90.0 90.0)
  end
  begin
     id 26 
     name rradius
     direction -1 -4.48966e-011 4.46736e-027   
     length 3.67875   
     axis 180 30 90   XYZ
    dof rx
    limits (-10.0 170.0)
  end
  begin
     id 27 
     name rwrist
     direction -1 -4.48966e-011 7.20928e-028   
     length 1.83937   
     axis -5.52449e-016 -90 -90   XYZ
    dof ry
    limits (-180.0 0.0)
  end
  begin
     id 28
     name rhand
     direction -1 -4.48973e-011 1.44186e-027   
     length 0.594811   
     axis -9.20027e-016 -90 -90   XYZ
    dof rx rz
    limits (-90.0 90.0)
           (-45.0 45.0)
  end
  begin
     id 29
     name rfingers
     direction -1 -4.48963e-011 2.88371e-027   
     length 0.479552   
     axis -1.84005e-015 -90 -90   XYZ
    dof rx
    limits (0.0 90.0)
  end
  begin
     id 30
     name rthumb
     direction -0.707107 -6.34932e-011 0.707107   
     length 0.688544   
     axis -90 -45 -2.85299e-015   XYZ
    dof rx rz
    limits (-45.0 45.0)
           (-45.0 45.0)
  end
:hierarchy
  begin
    root lhipjoint rhipjoint lowerback
    lhipjoint lfemur
    lfemur ltibia
    ltibia lfoot
    lfoot ltoes
    rhipjoint rfemur
    rfemur rtibia
    rtibia rfoot
    rfoot rtoes
    lowerback upperback
    upperback thorax
    thorax lowerneck lclavicle rclavicle
    lowerneck upperneck
    upperneck head
    lclavicle lhumerus
    lhumerus lradius
    lradius lwrist
    lwrist lhand lthumb
    lhand lfingers
    rclavicle rhumerus
    rhumerus rradius
    rradius rwrist
    rwrist rhand rthumb
    rhand rfingers
  end

#!OML:ASF E:\acrobat2\Project_11_07_03\Capture day 1\Session 1\Acrobat.ASF
:FULLY-SPECIFIED
:DEGREES
272
root 8.8396 18.3111 21.2822 7.54441 2.15241 0.698758
lowerback -4.35481 -0.193969 -0.584299
upperback -0.654386 -0.212713 -0.939629
thorax 1.7676 -0.107381 -0.648659
lowerneck -0.792083 -1.75824 -0.694731
upperneck 19.6896 -2.49192 0.79859
head 6.10319 -1.19946 0.234478
rclavicle -6.70898e-015 5.36719e-015
rhumerus -34.7525 4.5865 -87.4834
rradius 28.246
rwrist 5.37567
rhand -6.24263 -40.0749
rfingers 7.12502
rthumb 19.5991 -69.107
lclavicle -6.70898e-015 5.36719e-015
lhumerus -30.2845 -24.9227 93.9545
lradius 24.6651
lwrist 15.4481
lhand -10.2211 -10.4248
lfingers 7.12502
lthumb 15.7707 18.9527
rfemur -4.95826 7.26114 20.7491
rtibia 5.07888
rfoot -18.3127 -16.9897
rtoes 21.9485
lfemur -6.68877 -2.7381 -21.043
ltibia 6.36788
lfoot -3.55617 -4.6199
ltoes 45.9949
273
root 8.84069 18.3138 21.2177 7.80117 2.24272 0.792972
lowerback -3.93563 -0.255281 -0.660169
upperback -0.470534 -0.294158 -0.944488
thorax 1.72144 -0.148523 -0.614184
lowerneck -0.122085 -1.76367 -0.998451
upperneck 19.446 -2.51117 0.988349
head 5.91781 -1.2202 0.352249
rclavicle -1.88845e-015 4.17448e-015
rhumerus -34.3416 4.494 -87.3356
rradius 28.3284
rwrist 5.63323
rhand -6.16373 -39.6829
rfingers 7.12502
rthumb 19.675 -68.7072
lclavicle -1.88845e-015 4.17448e-015
lhumerus -29.8273 -25.0189 93.7211
lradius 24.6921
lwrist 15.3774
lhand -10.4739 -10.5619
lfingers 7.12502
lthumb 15.5273 18.8347
rfemur -5.51715 6.52021 20.6097
rtibia 5.06832
rfoot -17.6144 -16.9939
rtoes 20.5445
lfemur -7.20769 -2.8569 -21.1814
ltibia 6.38565
lfoot -3.30304 -4.48749
ltoes 47.6733
274
root 8.84038 18.3167 21.1471 8.11206 2.3842 0.830307
lowerback -3.42538 -0.327934 -0.677443
upperback -0.307368 -0.395307 -0.936704
thorax 1.60262 -0.199136 -0.599135
lowerneck -0.229897 -1.72465 -1.15461
upperneck 19.7135 -2.47042 1.10935
head 6.02393 -1.20153 0.416789
rclavicle 1.54058e-015 1.47101e-014
rhumerus -33.9282 4.75775 -87.3151
rradius 28.4198
rwrist 5.34766
rhand -5.94345 -39.4488
rfingers 7.12502
rthumb 19.8867 -68.4513
lclavicle 1.54058e-015 1.47101e-014
lhumerus -29.361 -25.1847 93.4584
lradius 24.7564
lwrist 15.4179
lhand -10.5005 -10.5925
lfingers 7.12502
lthumb 15.5016 18.806
rfemur -6.03005 7.09937 20.4437
rtibia 5.04526
rfoot -18.3787 -17.1379
rtoes 24.6627
lfemur -7.91366 -2.90004 -21.2188
ltibia 6.56152
lfoot -3.11586 -4.37388
ltoes 48.2387
275
root 8.83599 18.3182 21.0727 8.43945 2.43712 0.826236
lowerback -2.87615 -0.348225 -0.677105
upperback -0.138913 -0.427703 -0.937151
thorax 1.4674 -0.215266 -0.598124
lowerneck -0.261539 -1.69375 -1.33843
upperneck 19.8842 -2.46489 1.38326
head 6.089 -1.19186 0.533916
rclavicle 2.18663e-015 -5.76476e-015
rhumerus -33.5916 4.9295 -87.2954
rradius 28.6268
rwrist 5.13603
rhand -5.67449 -39.4963
rfingers 7.12502
rthumb 20.1452 -68.4718
lclavicle 2.18663e-015 -5.76476e-015
lhumerus -28.9704 -25.6377 93.2433
lradius 24.9437
lwrist 15.8036
lhand -10.6506 -10.6971
lfingers 7.12502
lthumb 15.3571 18.7126
rfemur -6.82705 6.45919 20.4438
rtibia 5.22
rfoot -17.1141 -17.2669
rtoes 21.0926
lfemur -8.68206 -2.96727 -21.1616
ltibia 6.78866
lfoot -3.15197 -4.27937
ltoes 47.8441
276
root 8.83482 18.3192 20.9949 8.7817 2.45116 0.774745
lowerback -2.34752 -0.326048 -0.553375
upperback 0.0551879 -0.40641 -0.92839
thorax 1.3693 -0.203789 -0.654884
lowerneck -0.356057 -1.70597 -1.53915
upperneck 20.1464 -2.51511 1.64039
head 6.195 -1.21057 0.645112
rclavicle 4.22417e-016 -6.16232e-015
rhumerus -33.202 4.77681 -87.1447
rradius 28.8041
rwrist 5.2426
rhand -5.55133 -39.5587
rfingers 7.12502
rthumb 20.2636 -68.5217
lclavicle 4.22417e-016 -6.16232e-015
lhumerus -28.5426 -26.0024 93.0578
lradius 25.079
lwrist 16.0723
lhand -11.0776 -11.0075
lfingers 7.12502
lthumb 14.9457 18.4333
rfemur -7.53972 6.9141 20.3281
rtibia 5.34405
rfoot -17.2626 -17.3137
rtoes 22.9522
lfemur -9.413 -3.49318 -21.013
ltibia 6.81776
lfoot -3.63422 -3.81588
ltoes 45.0122
277
root 8.83535 18.3209 20.9162 9.19744 2.53441 0.711362
lowerback -1.85719 -0.300081 -0.386826
upperback 0.251866 -0.379614 -0.897243
thorax 1.29516 -0.189253 -0.713113
lowerneck -0.324065 -1.7381 -1.60745
upperneck 20.0743 -2.56295 1.70482
head 6.16908 -1.23366 0.674972
rclavicle 2.33572e-015 -1.82882e-014
rhumerus -32.8057 4.72024 -86.9576
rradius 28.9871
rwrist 5.22354
rhand -5.66211 -39.5236
rfingers 7.12502
rthumb 20.1571 -68.4978
lclavicle 2.33572e-015 -1.82882e-014
lhumerus -28.003 -26.1359 92.8249
lradius 25.1114
lwrist 15.9568
lhand -11.3846 -11.1855
lfingers 7.12502
lthumb 14.6499 18.2769
rfemur -8.48575 5.85085 20.4258
rtibia 5.55733
rfoot -15.7494 -17.2628
rtoes 17.9663
lfemur -10.2017 -4.3148 -20.787
ltibia 6.72877
lfoot -4.12442 -3.10285
ltoes 42.055
278
root 8.83461 18.3219 20.836 9.65835 2.64378 0.853613
lowerback -1.36569 -0.295268 -0.442399
upperback 0.43504 -0.37438 -0.954991
thorax 1.20717 -0.186723 -0.738673
lowerneck -0.0534227 -1.7339 -1.4951
upperneck 19.7212 -2.55633 1.68834
head 6.00872 -1.22562 0.654655
rclavicle -1.03865e-014 1.19271e-015
rhumerus -32.5683 4.83982 -86.8885
rradius 29.3843
rwrist 4.94554
rhand -5.68863 -39.486
rfingers 7.12502
rthumb 20.1317 -68.4629
lclavicle -1.03865e-014 1.19271e-015
lhumerus -27.5033 -26.4482 92.5339
lradius 25.2211
lwrist 15.8171
lhand -11.445 -11.1238
lfingers 7.12502
lthumb 14.5918 18.3429
rfemur -9.37338 5.45469 20.2086
rtibia 5.68384
rfoot -15.2637 -17.2493
rtoes 16.8408
lfemur -11.1378 -4.29825 -20.9448
ltibia 6.98317
lfoot -3.83333 -2.84825
ltoes 45.5319
279
root 8.83135 18.323 20.745 10.1401 2.70065 1.06552
lowerback -0.756829 -0.341607 -0.661984
upperback 0.579347 -0.437789 -1.01213
thorax 1.0141 -0.219676 -0.672022
lowerneck 0.274238 -1.66506 -1.59266
upperneck 19.3781 -2.48866 1.89717
head 5.84658 -1.18851 0.744264
rclavicle -2.48481e-016 -1.2921e-014
rhumerus -32.2276 5.14934 -86.9083
rradius 29.6858
rwrist 4.67613
rhand -5.65052 -39.5369
rfingers 7.12502
rthumb 20.1683 -68.51
lclavicle -2.48481e-016 -1.2921e-014
lhumerus -27.0646 -26.8135 92.201
lradius 25.4095
lwrist 15.9524
lhand -11.544 -11.1767
lfingers 7.12502
lthumb 14.4964 18.2968
rfemur -10.3324 5.61766 19.8159
rtibia 6.06393
rfoot -16.0981 -16.8447
rtoes 22.1431
lfemur -12.2517 -3.62113 -21.2948
ltibia 7.5784
lfoot -3.24316 -3.43498
ltoes 42.4975
280
root 8.82939 18.3246 20.6466 10.5988 2.76178 1.18924
lowerback -0.0196802 -0.408616 -0.822169
upperback 0.747949 -0.534344 -0.974276
thorax 0.774557 -0.268898 -0.539914
lowerneck 0.519417 -1.64533 -1.67491
upperneck 18.9427 -2.44615 1.86308
head 5.66764 -1.17852 0.752303
rclavicle -1.49089e-015 -1.49089e-014
rhumerus -31.6665 5.64957 -86.8551
rradius 29.7226
rwrist 4.47456
rhand -6.2169 -39.399
rfingers 7.12502
rthumb 19.6238 -68.4285
lclavicle -1.49089e-015 -1.49089e-014
lhumerus -26.4502 -27.0818 91.8667
lradius 25.4629
lwrist 16.2266
lhand -11.7501 -11.3616
lfingers 7.12502
lthumb 14.2978 18.1261
rfemur -11.3148 5.96397 19.4898
rtibia 6.64386
rfoot -18.0118 -15.8104
rtoes 31.7908
lfemur -13.3299 -3.38002 -21.465
ltibia 8.04874
lfoot -2.7909 -3.4265
ltoes 45.7979
281
root 8.82811 18.3237 20.5472 11.0076 2.85397 1.15358
lowerback 0.773961 -0.397849 -0.706377
upperback 0.993836 -0.528373 -0.926646
thorax 0.580793 -0.265116 -0.550952
lowerneck 0.662103 -1.73128 -1.65453
upperneck 18.4569 -2.53112 1.70954
head 5.49091 -1.22969 0.698982
rclavicle 2.18663e-015 -3.97569e-015
rhumerus -31.1281 5.91389 -86.7235
rradius 29.7591
rwrist 4.42302
rhand -7.14871 -39.1571
rfingers 7.12502
rthumb 18.7278 -68.2756
lclavicle 2.18663e-015 -3.97569e-015
lhumerus -25.7098 -27.187 91.5404
lradius 25.3951
lwrist 16.0766
lhand -11.8069 -11.4367
lfingers 7.12502
lthumb 14.243 18.0549
rfemur -12.2637 6.02878 19.4307
rtibia 6.86713
rfoot -17.9811 -16.1162
rtoes 32.1013
lfemur -14.299 -3.47755 -21.389
ltibia 8.33749
lfoot -2.66392 -3.22726
ltoes 47.4179
282
root 8.8226 18.3182 20.4406 11.5627 2.94964 0.996741
lowerback 1.50139 -0.370135 -0.471254
upperback 1.19414 -0.496185 -0.88492
thorax 0.376793 -0.24745 -0.635709
lowerneck 0.891848 -1.80124 -1.66078
upperneck 17.8608 -2.62109 1.7346
head 5.26823 -1.27464 0.707552
rclavicle -2.98177e-015 -2.38542e-015
rhumerus -30.6764 6.04296 -86.6615
rradius 29.8484
rwrist 4.50299
rhand -7.7005 -39.048
rfingers 7.12502
rthumb 18.197 -68.2169
lclavicle -2.98177e-015 -2.38542e-015
lhumerus -25.0822 -26.9653 91.1967
lradius 25.377
lwrist 15.4227
lhand -11.9357 -11.4535
lfingers 7.12502
lthumb 14.1189 18.0468
rfemur -13.5282 5.97819 19.5572
rtibia 6.92351
rfoot -15.7515 -17.7512
rtoes 22.9357
lfemur -15.5512 -3.59765 -21.1021
ltibia 8.70877
lfoot -2.75154 -3.19544
ltoes 43.6003
283
root 8.81623 18.3116 20.3283 12.2891 3.0972 0.97447
lowerback 2.10185 -0.457959 -0.422771
upperback 1.35399 -0.616717 -0.856288
thorax 0.203161 -0.307286 -0.62776
lowerneck 1.14105 -1.7654 -1.58883
upperneck 17.1729 -2.55641 1.66105
head 5.00994 -1.24619 0.679677
rclavicle -9.34288e-015 -2.18663e-015
rhumerus -30.1632 6.25729 -86.6836
rradius 29.9622
rwrist 4.57965
rhand -7.79234 -39.1621
rfingers 7.12502
rthumb 18.1086 -68.3391
lclavicle -9.34288e-015 -2.18663e-015
lhumerus -24.494 -26.7925 90.7741
lradius 25.4508
lwrist 14.949
lhand -12.3312 -11.4491
lfingers 7.12502
lthumb 13.7378 18.0774
rfemur -15.0485 6.01362 19.4564
rtibia 7.24451
rfoot -14.0829 -18.5842
rtoes 16.5648
lfemur -17.0858 -4.10235 -20.836
ltibia 9.14864
lfoot -3.03232 -2.89927
ltoes 40.5973
